Coordinates
version=1
nRows=17
nColumns=24
inDegrees=yes

Units are S.I. units (second, meters, Newtons, ...)
Angles are in degrees.

endheader
time	pelvis_tilt	pelvis_list	pelvis_rotation	pelvis_tx	pelvis_ty	pelvis_tz	hip_flexion_r	hip_adduction_r	hip_rotation_r	knee_angle_r	ankle_angle_r	subtalar_angle_r	mtp_angle_r	hip_flexion_l	hip_adduction_l	hip_rotation_l	knee_angle_l	ankle_angle_l	subtalar_angle_l	mtp_angle_l	lumbar_extension	lumbar_bending	lumbar_rotation
      1.10400000	      1.10476651	      1.95263215	     -3.11873698	      0.17432475	      1.08632427	      0.27553028	     13.63810823	     -6.64615045	     -7.20892981	    -68.87191258	     -2.34915223	     -9.48658568	      1.39938116	      7.23545464	      4.04764496	      3.49553389	    -14.35939737	      8.30811730	      0.07958160	     -3.43173637	    -11.87557611	     -3.03227789	     -0.97785377
      1.10816667	      1.11565188	      1.78095320	     -3.08801341	      0.17908087	      1.08732568	      0.27524730	     14.13961925	     -6.45615867	     -7.34269498	    -68.62973548	     -2.05173633	     -9.36207302	      1.31855776	      6.71557912	      3.86894780	      3.47604379	    -13.91077949	      8.34365044	      0.21644562	     -3.42226845	    -11.96755585	     -2.80204729	     -1.12268369
      1.11233333	      1.11053863	      1.61225257	     -3.05172699	      0.18381423	      1.08823722	      0.27495878	     14.65047715	     -6.26608479	     -7.47933302	    -68.34101910	     -1.74345981	     -9.18311613	      1.27781060	      6.22148583	      3.69185914	      3.45459424	    -13.47336918	      8.36302102	      0.35020021	     -3.41535309	    -12.05078476	     -2.56702216	     -1.23855978
      1.11650000	      1.13251320	      1.45849570	     -2.99883886	      0.18856211	      1.08914908	      0.27465226	     15.11162162	     -6.10029382	     -7.63845862	    -67.99346196	     -1.41086958	     -8.90486442	      1.22737519	      5.69689863	      3.53324314	      3.44444056	    -13.03243134	      8.42054938	      0.50657671	     -3.40259202	    -12.15036533	     -2.35956785	     -1.43260608
      1.12066667	      1.13405439	      1.29693311	     -2.94182820	      0.19328121	      1.08996984	      0.27434791	     15.58621588	     -5.91867072	     -7.79651476	    -67.59655981	     -1.08549304	     -8.59896568	      1.19915164	      5.20313264	      3.36385042	      3.43660829	    -12.60365100	      8.45998588	      0.65777247	     -3.39154159	    -12.24097914	     -2.12953511	     -1.58296397
      1.12483333	      1.16648904	      1.14795391	     -2.87637478	      0.19799839	      1.09080177	      0.27403835	     16.01086468	     -5.75493144	     -7.96658032	    -67.14450529	     -0.74677562	     -8.24268045	      1.18018012	      4.67715062	      3.20882207	      3.43087666	    -12.17413653	      8.50683300	      0.81423518	     -3.37874829	    -12.36131863	     -1.92227795	     -1.75954944
      1.12900000	      1.16887261	      1.00367019	     -2.80110462	      0.20274158	      1.09151827	      0.27371736	     16.45301777	     -5.59584396	     -8.14564146	    -66.64298409	     -0.40157389	     -7.85523881	      1.17017125	      4.19086209	      3.05654623	      3.42699077	    -11.76024636	      8.55810472	      0.97505413	     -3.36351352	    -12.43911185	     -1.71070266	     -1.94497270
      1.13316667	      1.18134420	      0.86277773	     -2.72452240	      0.20744828	      1.09220150	      0.27341260	     16.87480874	     -5.43401707	     -8.31938780	    -66.09211811	     -0.06382579	     -7.43958060	      1.17417113	      3.69986822	      2.90735729	      3.43031701	    -11.35295310	      8.60090287	      1.12534540	     -3.35071596	    -12.54780355	     -1.51082269	     -2.10175938
      1.13733333	      1.20968849	      0.73049523	     -2.63405893	      0.21216109	      1.09283924	      0.27308500	     17.26400077	     -5.28986093	     -8.51420247	    -65.49712400	      0.28802125	     -6.98920345	      1.18726211	      3.19612055	      2.76766836	      3.43297162	    -10.95098765	      8.66843282	      1.28832448	     -3.33452565	    -12.65763298	     -1.30994123	     -2.29392083
      1.14150000	      1.22464937	      0.61246979	     -2.54282236	      0.21689074	      1.09341543	      0.27277489	     17.65511387	     -5.15621608	     -8.70378537	    -64.85292768	      0.63236976	     -6.53282979	      1.20943043	      2.70916156	      2.64145971	      3.44091938	    -10.55346665	      8.72533699	      1.44441521	     -3.31802824	    -12.75150644	     -1.12445381	     -2.48233504
      1.14566667	      1.23591059	      0.49317402	     -2.44907390	      0.22161445	      1.09390502	      0.27247087	     18.03875998	     -5.01794376	     -8.89472374	    -64.16548604	      0.97079491	     -6.06828138	      1.23947111	      2.23386775	      2.51229820	      3.45031831	    -10.17122221	      8.79266243	      1.60200752	     -3.30094227	    -12.84642426	     -0.94520869	     -2.66386006
      1.14983333	      1.25170311	      0.39480295	     -2.35278482	      0.22633856	      1.09433930	      0.27218021	     18.40769146	     -4.90199127	     -9.08323710	    -63.43824786	      1.30664809	     -5.60499369	      1.27768493	      1.75808796	      2.40428809	      3.46201120	     -9.79523289	      8.86464739	      1.75990417	     -3.28271708	    -12.94028594	     -0.78137703	     -2.85140345
      1.15400000	      1.24335226	      0.27846650	     -2.25133180	      0.23107478	      1.09470539	      0.27189827	     18.78078027	     -4.75594726	     -9.27102615	    -62.64564294	      1.61341285	     -5.17057101	      1.31285161	      1.31724059	      2.27345615	      3.47282415	     -9.43857897	      8.92000733	      1.90444829	     -3.26942490	    -13.01019859	     -0.60644023	     -2.99433821
      1.15816667	      1.25095348	      0.19900145	     -2.15302602	      0.23581332	      1.09500461	      0.27163514	     19.13333696	     -4.65384254	     -9.45355602	    -61.83142521	      1.93819014	     -4.70917535	      1.35483780	      0.85922584	      2.18264405	      3.48513301	     -9.07936509	      8.99996094	      2.05574172	     -3.25434963	    -13.09057123	     -0.47109277	     -3.17012668
      1.16233333	      1.26180039	      0.13596274	     -2.05433352	      0.24055820	      1.09524662	      0.27137784	     19.47261301	     -4.57017792	     -9.63669159	    -60.98115395	      2.24951971	     -4.25871861	      1.41229556	      0.39764249	      2.10948740	      3.50339736	     -8.71878822	      9.10534670	      2.21369324	     -3.23390900	    -13.17362243	     -0.34598975	     -3.38941394
      1.16650000	      1.25845995	      0.06583773	     -1.95365437	      0.24531270	      1.09541354	      0.27114100	     19.80933812	     -4.46949674	     -9.81211724	    -60.07756760	      2.53937191	     -3.84093052	      1.47493097	     -0.03928428	      2.02518881	      3.51974611	     -8.37948434	      9.19651891	      2.36455696	     -3.21320646	    -13.24241705	     -0.21899627	     -3.57375378
      1.17066667	      1.22113325	     -0.00595942	     -1.85648844	      0.25009458	      1.09548037	      0.27093037	     20.16596276	     -4.35591888	     -9.97413426	    -59.12209985	      2.80209646	     -3.47069386	      1.52241757	     -0.43354717	      1.93592669	      3.53195078	     -8.05627608	      9.27148765	      2.49644956	     -3.19871786	    -13.26857331	     -0.09613183	     -3.70046111
